<svg id="SvgjsSvg1002" xmlns="http://www.w3.org/2000/svg" version="1.1" xmlns:xlink="http://www.w3.org/1999/xlink" xmlns:svgjs="http://svgjs.com/svgjs" width="995.3125" height="402.875"><rect id="SvgjsRect1029" width="221.625" height="38.21875" x="10" y="20" stroke="#000000" stroke-width="2" fill-opacity="0.01"></rect><rect id="SvgjsRect1032" width="201.625" height="18.21875" x="19.984375" y="30.109375" fill="#ffffff" stroke="none"></rect><text id="SvgjsText1030" font-family="Andale Mono, monospace" text-anchor="middle" x="120.8125" y="24.3125" font-size="16"><tspan id="SvgjsTspan1031" dy="20.8" x="120.8125">High Trust Translator</tspan></text><rect id="SvgjsRect1033" width="221.625" height="38.21875" x="10" y="344.65625" stroke="#000000" stroke-width="2" fill-opacity="0.01"></rect><rect id="SvgjsRect1036" width="201.625" height="18.21875" x="19.984375" y="354.765625" fill="#ffffff" stroke="none"></rect><text id="SvgjsText1034" font-family="Andale Mono, monospace" text-anchor="middle" x="120.8125" y="348.96875" font-size="16"><tspan id="SvgjsTspan1035" dy="20.8" x="120.8125">High Trust Translator</tspan></text><path id="SvgjsPath1037" d="M120.8125 58.21875L120.8125 344.65625 " stroke="#000000" stroke-width="2"></path><rect id="SvgjsRect1038" width="212.03125" height="38.21875" x="251.625" y="20" stroke="#000000" stroke-width="2" fill-opacity="0.01"></rect><rect id="SvgjsRect1041" width="192.03125" height="18" x="261.625" y="30.109375" fill="#ffffff" stroke="none"></rect><text id="SvgjsText1039" font-family="Andale Mono, monospace" text-anchor="middle" x="357.640625" y="24.3125" font-size="16"><tspan id="SvgjsTspan1040" dy="20.8" x="357.640625">Low Trust Translator</tspan></text><rect id="SvgjsRect1042" width="212.03125" height="38.21875" x="251.625" y="344.65625" stroke="#000000" stroke-width="2" fill-opacity="0.01"></rect><rect id="SvgjsRect1045" width="192.03125" height="18" x="261.625" y="354.765625" fill="#ffffff" stroke="none"></rect><text id="SvgjsText1043" font-family="Andale Mono, monospace" text-anchor="middle" x="357.640625" y="348.96875" font-size="16"><tspan id="SvgjsTspan1044" dy="20.8" x="357.640625">Low Trust Translator</tspan></text><path id="SvgjsPath1046" d="M357.640625 58.21875L357.640625 344.65625 " stroke="#000000" stroke-width="2"></path><rect id="SvgjsRect1047" width="58.40625" height="38.21875" x="646.078125" y="20" stroke="#000000" stroke-width="2" fill-opacity="0.01"></rect><rect id="SvgjsRect1050" width="38.40625" height="18" x="656.078125" y="30.109375" fill="#ffffff" stroke="none"></rect><text id="SvgjsText1048" font-family="Andale Mono, monospace" text-anchor="middle" x="675.28125" y="24.3125" font-size="16"><tspan id="SvgjsTspan1049" dy="20.8" x="675.28125">Term</tspan></text><rect id="SvgjsRect1051" width="58.40625" height="38.21875" x="646.078125" y="344.65625" stroke="#000000" stroke-width="2" fill-opacity="0.01"></rect><rect id="SvgjsRect1054" width="38.40625" height="18" x="656.078125" y="354.765625" fill="#ffffff" stroke="none"></rect><text id="SvgjsText1052" font-family="Andale Mono, monospace" text-anchor="middle" x="675.28125" y="348.96875" font-size="16"><tspan id="SvgjsTspan1053" dy="20.8" x="675.28125">Term</tspan></text><path id="SvgjsPath1055" d="M675.28125 58.21875L675.28125 344.65625 " stroke="#000000" stroke-width="2"></path><rect id="SvgjsRect1058" width="182.421875" height="18" x="148" y="74.21875" fill="#ffffff" stroke="none"></rect><text id="SvgjsText1056" font-family="Andale Mono, monospace" text-anchor="middle" x="239.2265625" y="68.421875" font-size="16"><tspan id="SvgjsTspan1057" dy="20.8" x="239.2265625">Set the trust level</tspan></text><path id="SvgjsPath1059" d="M120.8125 96.21875L357.640625 96.21875 " stroke="#000000" stroke-width="2" marker-end="open-wide-long" stroke-dasharray=""></path><path id="SvgjsPath1060" d="M349.640625 88.21875V104.21875L357.640625 96.21875Z "></path><rect id="SvgjsRect1063" width="297.640625" height="18" x="367.625" y="112.21875" fill="#ffffff" stroke="none"></rect><text id="SvgjsText1061" font-family="Andale Mono, monospace" text-anchor="middle" x="516.4609375" y="106.421875" font-size="16"><tspan id="SvgjsTspan1062" dy="20.8" x="516.4609375">Add new translation with source</tspan></text><path id="SvgjsPath1064" d="M357.640625 134.21875L675.28125 134.21875 " stroke="#000000" stroke-width="2" marker-end="open-wide-long" stroke-dasharray=""></path><path id="SvgjsPath1065" d="M667.28125 126.21875V142.21875L675.28125 134.21875Z "></path><rect id="SvgjsRect1068" width="297.640625" height="18.21875" x="249.21875" y="150.21875" fill="#ffffff" stroke="none"></rect><text id="SvgjsText1066" font-family="Andale Mono, monospace" text-anchor="middle" x="398.046875" y="144.421875" font-size="16"><tspan id="SvgjsTspan1067" dy="20.8" x="398.046875">Present new translation options</tspan></text><path id="SvgjsPath1069" d="M675.28125 172.4375L120.8125 172.4375 " stroke="#000000" stroke-width="2" marker-end="open-wide-long" stroke-dasharray=""></path><path id="SvgjsPath1070" d="M128.8125 164.21875V180.21875L120.8125 172.21875Z "></path><rect id="SvgjsRect1073" width="201.625" height="18" x="297.21875" y="188.4375" fill="#ffffff" stroke="none"></rect><text id="SvgjsText1071" font-family="Andale Mono, monospace" text-anchor="middle" x="398.046875" y="182.640625" font-size="16"><tspan id="SvgjsTspan1072" dy="20.8" x="398.046875">Promote a translation</tspan></text><path id="SvgjsPath1074" d="M120.8125 210.4375L675.28125 210.4375 " stroke="#000000" stroke-width="2" marker-end="open-wide-long" stroke-dasharray=""></path><path id="SvgjsPath1075" d="M667.28125 202.4375V218.4375L675.28125 210.4375Z "></path><rect id="SvgjsRect1078" width="220.828125" height="18.21875" x="589.859375" y="230.546875" fill="#ffffff" stroke="none"></rect><text id="SvgjsText1076" font-family="Andale Mono, monospace" text-anchor="middle" x="700.28125" y="224.75" font-size="16"><tspan id="SvgjsTspan1077" dy="20.8" x="700.28125">Advance to higher trust</tspan></text><path id="SvgjsPath1079" d="M675.28125 225.4375L695.28125 225.4375 " stroke="#000000" stroke-width="2" stroke-dasharray=""></path><path id="SvgjsPath1080" d="M695.28125 225.4375L695.28125 258.65625 " stroke="#000000" stroke-width="2" stroke-dasharray=""></path><path id="SvgjsPath1081" d="M695.28125 258.65625L675.28125 258.65625 " stroke="#000000" stroke-width="2" stroke-dasharray="" marker-end="open-wide-long"></path><rect id="SvgjsRect1084" width="172.828125" height="18" x="152.8125" y="264.65625" fill="#ffffff" stroke="none"></rect><text id="SvgjsText1082" font-family="Andale Mono, monospace" text-anchor="middle" x="239.2265625" y="258.859375" font-size="16"><tspan id="SvgjsTspan1083" dy="20.8" x="239.2265625">Add 1 to the score</tspan></text><path id="SvgjsPath1085" d="M120.8125 286.65625L357.640625 286.65625 " stroke="#000000" stroke-width="2" marker-end="open-wide-long" stroke-dasharray=""></path><path id="SvgjsPath1086" d="M349.640625 278.65625V294.65625L357.640625 286.65625Z "></path><rect id="SvgjsRect1089" width="124.8125" height="18" x="176.8125" y="302.65625" fill="#ffffff" stroke="none"></rect><text id="SvgjsText1087" font-family="Andale Mono, monospace" text-anchor="middle" x="239.2265625" y="296.859375" font-size="16"><tspan id="SvgjsTspan1088" dy="20.8" x="239.2265625">Promote trust</tspan></text><defs id="SvgjsDefs1003"></defs><path id="SvgjsPath1090" d="M120.8125 324.65625L357.640625 324.65625 " stroke="#000000" stroke-width="2" marker-end="open-wide-long" stroke-dasharray=""></path><path id="SvgjsPath1091" d="M349.640625 316.65625V332.65625L357.640625 324.65625Z "></path></svg>